<svg width="24" height="24" viewBox="0 0 24 24" fill="none" xmlns="http://www.w3.org/2000/svg">
<path d="M4.6797 23.4986H18.7198C21.3004 23.4986 23.3998 21.3993 23.3998 18.8187L23.4 4.77856C23.4 2.19797 21.3007 0.0986328 18.7201 0.0986328H4.67993C2.09934 0.0986328 0 2.19797 0 4.77856V18.8187C0 21.3995 2.09934 23.4989 4.67993 23.4989L4.6797 23.4986ZM6.74244 10.7956H10.697V6.84113C10.697 6.28732 11.1458 5.8382 11.6999 5.8382C12.2537 5.8382 12.7028 6.28707 12.7028 6.84113V10.7956H16.6573C17.2111 10.7956 17.6603 11.2445 17.6603 11.7986C17.6603 12.3524 17.2114 12.8015 16.6573 12.8015H12.7028V16.756C12.7028 17.3098 12.2539 17.759 11.6999 17.759C11.1461 17.759 10.697 17.3101 10.697 16.756V12.8015H6.74244C6.18863 12.8015 5.73951 12.3526 5.73951 11.7986C5.73951 11.2448 6.18838 10.7956 6.74244 10.7956Z" fill="#C8175D"/>
</svg>
