<svg width="24" height="24" viewBox="0 0 24 24" fill="none" xmlns="http://www.w3.org/2000/svg">
<rect x="0.600586" y="0.199219" width="23.4" height="23.4" rx="2.7" fill="white"/>
<path d="M20.1018 2.14746H8.40126C7.32579 2.14746 6.45117 3.02208 6.45117 4.09755V15.7981C6.45117 16.8736 7.32579 17.7482 8.40126 17.7482H20.1018C21.1773 17.7482 22.0519 16.8736 22.0519 15.7981V4.09755C22.0519 3.02208 21.1773 2.14746 20.1018 2.14746ZM8.40126 15.7981V4.09755H20.1018L20.1038 15.7981H8.40126Z" fill="#C8175D"/>
<path d="M4.50087 7.9999H2.55078V19.7004C2.55078 20.7759 3.4254 21.6505 4.50087 21.6505H16.2014V19.7004H4.50087V7.9999ZM15.2264 6.0498H13.2763V8.97494H10.3511V10.925H13.2763V13.8502H15.2264V10.925H18.1515V8.97494H15.2264V6.0498Z" fill="#C8175D"/>
</svg>
