<svg width="19" height="21" viewBox="0 0 19 21" fill="none" xmlns="http://www.w3.org/2000/svg">
<path d="M0.00727925 7.05863C-0.0513466 5.89499 0.256437 4.7457 0.87934 3.78183L1.04162 3.54481L1.05506 3.53186L1.16767 3.39971L1.28573 3.26471L1.29909 3.25078C1.5244 3.01987 1.77387 2.81671 2.04299 2.6432L2.11896 2.59516L2.19493 2.55046L2.37374 2.44754C2.44613 2.41318 2.52486 2.37238 2.59726 2.3381C2.65002 2.31766 2.70278 2.2908 2.75547 2.27036C2.85472 2.22859 2.96025 2.18779 3.0657 2.15351C3.10153 2.13584 3.13906 2.12192 3.17749 2.11264L3.22016 2.09554L3.2669 2.07836C3.74787 1.93456 4.24229 1.83531 4.74208 1.78987L4.6903 1.79589V0.759283C4.6903 0.343618 5.0256 0.00757934 5.44023 0.00757934C5.85493 0.00757934 6.19112 0.343618 6.19112 0.759283V4.03587C6.19112 4.45153 5.85491 4.78855 5.44023 4.78855C5.0256 4.78855 4.6903 4.45153 4.6903 4.03587L4.69038 3.27837C4.19809 3.32763 3.71465 3.45009 3.25615 3.64413C2.07305 4.1764 1.50878 5.18998 1.45535 6.79627L1.45112 7.05479V7.45832H17.3102V7.0446C17.3407 6.30069 17.1913 5.56047 16.8748 4.89154C16.5709 4.31929 16.0845 3.87495 15.4971 3.63377C15.1231 3.47271 14.7313 3.36044 14.3309 3.29911L14.0704 3.26744V4.03194C14.0704 4.44575 13.7346 4.78097 13.32 4.78097C12.9055 4.78097 12.5696 4.44575 12.5696 4.03194V3.21118L6.19839 3.21175V1.7211L12.5696 1.72077V0.754743C12.5658 0.34087 12.8998 0.0028729 13.3144 1.71692e-05C13.729 -0.00275122 14.0676 0.329614 14.0704 0.743508L14.0711 1.79006C14.4352 1.82597 14.7963 1.88948 15.1518 1.98027L15.5052 2.0801C15.5339 2.08563 15.5553 2.09304 15.5946 2.10697C15.6339 2.12089 15.6671 2.13481 15.7064 2.14776C15.811 2.18212 15.9084 2.22292 16.0095 2.26469C16.0675 2.28504 16.1212 2.31199 16.1668 2.33235C16.2454 2.36671 16.326 2.40751 16.3903 2.44179C16.4565 2.47615 16.5199 2.51417 16.5754 2.54479C16.6308 2.5754 16.6737 2.60968 16.7202 2.63753C16.9227 2.7683 17.1151 2.91585 17.2948 3.07804L17.4703 3.24513L17.4784 3.25905L17.6009 3.38908L17.7161 3.5262L17.7224 3.53915C18.3966 4.47162 18.7593 5.60401 18.7605 6.76404L18.7532 7.05457V7.45811H18.7605V15.5398C18.7605 19.064 16.7923 20.8446 12.8916 20.8446H5.85988C1.96816 20.8446 0 19.064 0 15.5398V7.45811H0.00708396L0.00727925 7.05863ZM13.67 14.8483C13.1869 14.8483 12.8022 15.245 12.8022 15.734C12.8112 16.223 13.1958 16.6197 13.67 16.6197C14.1441 16.6197 14.5288 16.223 14.5288 15.734C14.5288 15.245 14.1441 14.8483 13.67 14.8483ZM9.38471 14.8391C8.90161 14.8483 8.51688 15.245 8.51688 15.7341C8.51688 16.223 8.91057 16.6197 9.38471 16.6197C9.85884 16.6197 10.2436 16.223 10.2436 15.7248C10.2346 15.245 9.85884 14.8483 9.38471 14.8391ZM5.09048 14.8391C4.60738 14.8391 4.22265 15.245 4.23161 15.7341C4.23161 16.223 4.61635 16.6197 5.09048 16.6197C5.56462 16.6197 5.94926 16.2137 5.94926 15.7248C5.94926 15.2358 5.56462 14.8391 5.09048 14.8391ZM13.67 11.0658C13.1869 11.0658 12.8112 11.4625 12.8112 11.9514C12.8112 12.4404 13.1958 12.8371 13.67 12.8371C14.1441 12.8371 14.5288 12.4404 14.5288 11.9514C14.5288 11.4625 14.1441 11.0658 13.67 11.0658ZM9.38471 11.0565C8.90161 11.0658 8.51688 11.4625 8.51688 11.9515C8.51688 12.4404 8.91057 12.8371 9.38471 12.8371C9.85884 12.8371 10.2436 12.4404 10.2436 11.9422C10.2436 11.4625 9.85884 11.0658 9.38471 11.0565ZM5.09944 11.0565C4.61635 11.0565 4.23161 11.4625 4.23161 11.9515C4.23161 12.4404 4.61635 12.8371 5.09048 12.8371C5.57358 12.8371 5.95823 12.4312 5.94926 11.9422C5.94926 11.4533 5.56461 11.0565 5.09942 11.0565H5.09944Z" fill="#C8175D"/>
</svg>
