<svg width="20" height="19" viewBox="0 0 20 19" fill="none" xmlns="http://www.w3.org/2000/svg">
<path d="M19.3085 0.601079C19.3085 0.442659 19.2456 0.290761 19.1337 0.178851C19.0217 0.066805 18.8698 0.00390625 18.7113 0.00390625H13.7352C13.5769 0.00390625 13.425 0.0668015 13.3129 0.178851C13.201 0.290758 13.1381 0.442655 13.1381 0.601079V10.9913H8.36101V7.16962C8.36101 7.0112 8.29811 6.85931 8.1862 6.7474C8.07416 6.63535 7.92226 6.57245 7.76383 6.57245H7.06724V5.17916C7.06724 5.02074 7.00434 4.86884 6.89229 4.75693C6.78039 4.64489 6.62849 4.58199 6.47007 4.58199H5.07677V3.94497C5.67185 3.75364 6.13922 3.28864 6.33358 2.69453C6.52796 2.10041 6.42577 1.4491 6.0588 0.94302C5.69199 0.436943 5.10466 0.137307 4.47958 0.137307C3.8545 0.137307 3.26721 0.436933 2.90036 0.94302C2.5334 1.4491 2.43121 2.10041 2.62558 2.69453C2.81997 3.28864 3.28731 3.75363 3.88239 3.94497V4.58199H2.48909C2.33067 4.58199 2.17878 4.64488 2.06687 4.75693C1.95482 4.86884 1.89192 5.02074 1.89192 5.17916V6.57245H1.19533C1.03691 6.57245 0.885011 6.63535 0.772958 6.7474C0.661051 6.8593 0.598153 7.0112 0.598153 7.16962V16.9229H0.000976562V18.1173H19.9057V16.9229H19.3085L19.3085 0.601079ZM5.47476 16.9229H3.48429V14.4548H5.47476V16.9229ZM6.58938 12.4046H2.36959V11.2102L6.58938 11.2103V12.4046ZM6.58938 10.215L2.36959 10.2151V9.02076H6.58938V10.215ZM11.7447 16.9228H9.73436V15.3304H11.7447V16.9228ZM18.1142 16.9228H14.3323V15.0518H18.1142V16.9228ZM18.1142 11.8472H14.3323V10.6528L18.1142 10.6529V11.8472ZM18.1142 7.86622H14.3323V6.67186L18.1142 6.672V7.86622ZM18.1142 3.88528H14.3323V2.69093L18.1142 2.69107V3.88528Z" fill="white"/>
</svg>
