<svg width="23" height="20" viewBox="0 0 23 20" fill="none" xmlns="http://www.w3.org/2000/svg">
<path d="M3.29439 15.2465L3.51413 14.6628L3.08659 14.2087C1.76331 12.8032 1.00119 11.0962 1.00119 9.2671C1.00119 4.88108 5.42011 1 11.3668 1C17.2984 1 21.7323 4.98946 21.7323 9.34729C21.7323 13.6903 17.3164 17.5743 11.3668 17.5743C10.0152 17.5743 8.72134 17.3576 7.52536 16.9847L7.06323 16.8407L6.66355 17.1138C5.62256 17.8251 4.12659 18.6511 2.2508 18.9146L3.73927 18.4344C4.90797 18.0574 5.87247 17.5031 6.57146 17.0068C6.57185 17.0066 6.57224 17.0063 6.57263 17.006L7.03455 16.6803L7.57358 16.8491C7.57411 16.8492 7.57464 16.8494 7.57517 16.8496C8.79623 17.2362 10.0724 17.4357 11.3668 17.4357C16.7862 17.4357 21.5563 14.01 21.5563 9.3072C21.5563 6.96642 20.3176 4.91324 18.456 3.47678C16.5951 2.04082 14.0694 1.17866 11.3293 1.17866C8.58926 1.17866 6.06357 2.04082 4.20261 3.47678C2.34101 4.91324 1.10233 6.96642 1.10233 9.3072C1.10233 11.5444 2.25452 13.1989 3.14046 14.1494L3.14045 14.1494L3.14439 14.1536L3.6337 14.6726L3.38252 15.3348C3.38252 15.3348 3.38252 15.3348 3.38251 15.3348C3.16287 15.9139 2.88036 16.4659 2.57794 16.963L1.34194 18.9945C1.24072 18.9981 1.13854 18.9999 1.03543 19L1.02549 18.9684L1.00574 18.9223C0.995063 18.8974 0.999788 18.8689 1.01509 18.8495C1.02417 18.8402 1.03296 18.8309 1.04058 18.8228C1.05794 18.8044 1.0791 18.7814 1.10321 18.7546C1.15181 18.7007 1.21726 18.6263 1.29552 18.5336C1.45192 18.3485 1.6629 18.0866 1.89483 17.767C2.35311 17.1354 2.9195 16.2423 3.29439 15.2465Z" stroke="#C8175D" stroke-width="2"/>
<circle cx="7" cy="9" r="1" fill="#C8175D"/>
<circle cx="11" cy="9" r="1" fill="#C8175D"/>
<circle cx="15" cy="9" r="1" fill="#C8175D"/>
</svg>
