<svg width="13" height="14" viewBox="0 0 13 14" fill="none" xmlns="http://www.w3.org/2000/svg">
<path d="M0.833291 2.93652C0.59454 2.93737 0.401228 3.13068 0.400391 3.3693V13.0623C0.401239 13.301 0.594543 13.4943 0.833291 13.4951H10.526C10.7648 13.4943 10.9581 13.301 10.9589 13.0623V8.13422C10.9594 8.01896 10.9141 7.90831 10.8329 7.8265C10.7517 7.7447 10.6413 7.69852 10.526 7.69816C10.4103 7.69767 10.2991 7.74349 10.2172 7.82529C10.1353 7.90722 10.0896 8.01836 10.0899 8.13422V12.6264H1.26936V3.80552H5.68121C5.79646 3.80516 5.90687 3.75898 5.98807 3.67718C6.06927 3.59537 6.11459 3.48472 6.11411 3.36946C6.11326 3.13071 5.91996 2.9374 5.68121 2.93669L0.833291 2.93652Z" fill="#C8175D"/>
<path d="M3.40135 8.45992L2.65527 11.2441L5.43945 10.498L12.5778 3.35965C13.1407 2.79681 13.1407 1.88435 12.5778 1.32154C12.015 0.758705 11.1025 0.758705 10.5396 1.32154L3.40135 8.45992Z" fill="#C8175D"/>
</svg>
