<svg width="18" height="19" viewBox="0 0 18 19" fill="none" xmlns="http://www.w3.org/2000/svg">
<path d="M17.1364 15.946C16.6642 17.3925 15.036 18.9805 14.025 18.9805C13.9516 18.9826 13.8913 18.9732 13.8301 18.9585C10.1818 17.9366 7.34311 16.0907 4.62374 12.9729C2.1654 10.1544 0.6595 7.04104 0.0205465 3.45473C-0.223722 1.99847 1.76187 0.481878 3.21957 0.169547C3.40914 0.12889 3.58823 0.108398 3.75184 0.108398C4.2744 0.108398 4.60631 0.322012 4.71163 0.726329L6.09994 4.5047C6.31678 4.95354 6.02137 5.30816 5.5212 5.84948C4.85714 6.56806 4.03026 7.46239 5.26161 8.87362L8.69279 12.8075C9.91849 14.2128 10.9105 13.5239 11.7081 12.9699C12.3087 12.5523 12.6979 12.3105 13.1159 12.5915L16.7638 14.5405C17.0956 14.6778 17.4336 15.0345 17.1363 15.9459L17.1364 15.946Z" fill="white"/>
</svg>
