<svg width="24" height="24" viewBox="0 0 24 24" fill="none" xmlns="http://www.w3.org/2000/svg">
<path d="M5.08009 23.4986H19.1202C21.7008 23.4986 23.8002 21.3993 23.8002 18.8187L23.8004 4.77856C23.8004 2.19797 21.7011 0.0986328 19.1205 0.0986328H5.08032C2.49973 0.0986328 0.400391 2.19797 0.400391 4.77856V18.8187C0.400391 21.3995 2.49973 23.4989 5.08032 23.4989L5.08009 23.4986ZM7.14283 10.7956H11.0974V6.84113C11.0974 6.28732 11.5462 5.8382 12.1003 5.8382C12.6541 5.8382 13.1032 6.28707 13.1032 6.84113V10.7956H17.0577C17.6115 10.7956 18.0607 11.2445 18.0607 11.7986C18.0607 12.3524 17.6118 12.8015 17.0577 12.8015H13.1032V16.756C13.1032 17.3098 12.6543 17.759 12.1003 17.759C11.5465 17.759 11.0974 17.3101 11.0974 16.756V12.8015H7.14283C6.58903 12.8015 6.1399 12.3526 6.1399 11.7986C6.1399 11.2448 6.58877 10.7956 7.14283 10.7956Z" fill="white"/>
</svg>
