<svg width="23" height="26" viewBox="0 0 23 26" fill="none" xmlns="http://www.w3.org/2000/svg">
<path d="M11.6926 0.357824C11.466 0.364304 11.2533 0.469393 11.1098 0.64594L10.1414 1.81978L8.72918 2.39146C8.51583 2.47974 8.35233 2.65803 8.28224 2.87889C8.21217 3.09975 8.24285 3.3404 8.36608 3.53621L9.18201 4.82968L9.28572 6.34698C9.3014 6.57905 9.41872 6.7922 9.60592 6.92897C9.7933 7.06558 10.0312 7.11182 10.2557 7.0549L11.726 6.67483L13.2039 7.04421C13.4283 7.10009 13.6657 7.05315 13.8522 6.91618C14.0388 6.77921 14.1555 6.56624 14.171 6.33468L14.2654 4.80671L15.0723 3.51486C15.1941 3.31694 15.2224 3.07506 15.1493 2.85422C15.0763 2.63354 14.9095 2.45664 14.6941 2.3715L13.2817 1.81067L12.3071 0.639833C12.1905 0.498138 12.028 0.402159 11.848 0.368531C11.7967 0.359774 11.7446 0.356096 11.6925 0.357847L11.6926 0.357824ZM3.90816 3.49645C3.68156 3.50293 3.46891 3.60801 3.32544 3.78456L2.35699 4.95841L0.94478 5.53008C0.73143 5.61836 0.567929 5.79666 0.49784 6.01751C0.427769 6.23837 0.458447 6.47902 0.581682 6.67483L1.3976 7.9683L1.50132 9.4856C1.517 9.71767 1.63431 9.93082 1.82152 10.0676C2.0089 10.2042 2.24683 10.2504 2.47131 10.1935L3.94158 9.81345L5.41952 10.1828C5.64385 10.2387 5.88128 10.1918 6.06775 10.0548C6.25444 9.91784 6.37105 9.70486 6.38656 9.4733L6.48104 7.94533L7.2879 6.65348C7.40974 6.45556 7.43798 6.21369 7.36495 5.99284C7.29191 5.77216 7.1251 5.59526 6.90966 5.51012L5.49727 4.9493L4.52271 3.77846C4.4061 3.63676 4.24365 3.54078 4.06359 3.50715C4.01235 3.4984 3.96023 3.49472 3.90811 3.49647L3.90816 3.49645ZM19.4774 3.49645C19.2508 3.50293 19.0382 3.60801 18.8947 3.78456L17.9262 4.95841L16.514 5.53008C16.3007 5.61836 16.1372 5.79666 16.0671 6.01751C15.997 6.23837 16.0277 6.47902 16.1509 6.67483L16.9669 7.9683L17.0706 9.48542V9.4856C17.0863 9.71766 17.2036 9.93082 17.3908 10.0676C17.5781 10.2042 17.8161 10.2504 18.0406 10.1935L19.5108 9.81345L20.9888 10.1828C21.2133 10.2387 21.451 10.1916 21.6377 10.0543C21.8244 9.91713 21.9408 9.70363 21.9558 9.47175L22.0503 7.94534L22.8572 6.65349C22.979 6.45557 23.0072 6.21369 22.9342 5.99285C22.8612 5.77217 22.6944 5.59527 22.4789 5.51013L21.0665 4.94931L20.092 3.77846C19.9754 3.63677 19.8129 3.54079 19.6329 3.50716C19.5816 3.4984 19.5295 3.49473 19.4774 3.49648L19.4774 3.49645ZM11.7189 8.49717C9.21534 8.49717 7.16605 10.5514 7.16605 13.067C7.16605 14.5708 7.90094 15.9066 9.02521 16.7405C7.19131 17.7159 5.93666 19.652 5.93666 21.8776V24.6806C5.93596 24.8897 6.01823 25.0906 6.16552 25.2384C6.31264 25.3864 6.51257 25.4691 6.72067 25.4682H16.7166C16.9236 25.4675 17.122 25.384 17.2679 25.2363C17.4138 25.0885 17.4952 24.8887 17.4945 24.6806V21.8775C17.4945 19.6514 16.2435 17.7155 14.4105 16.7405C15.5332 15.9066 16.2667 14.5709 16.2667 13.067C16.2667 10.5514 14.2223 8.49713 11.7183 8.49713L11.7189 8.49717Z" fill="white"/>
</svg>
