<svg width="6" height="25" viewBox="0 0 6 25" fill="none" xmlns="http://www.w3.org/2000/svg">
<path d="M0 11.9866C0 10.4376 1.28219 9.15527 2.83129 9.15527C4.3803 9.15527 5.66258 10.4375 5.66258 11.9866C5.66258 13.5357 4.38039 14.8179 2.83129 14.8179C1.2819 14.8179 0 13.536 0 11.9866Z" fill="#C8175D"/>
<path d="M0 21.3538C0 19.8047 1.28219 18.5225 2.83129 18.5225C4.3803 18.5225 5.66258 19.8047 5.66258 21.3538C5.66258 22.9029 4.38039 24.185 2.83129 24.185C1.2819 24.185 0 22.9029 0 21.3538Z" fill="#C8175D"/>
<path d="M0 2.88452C0 1.33551 1.28219 0 2.83129 0C4.3803 0 5.66258 1.28219 5.66258 2.88452C5.66258 4.43353 4.38039 5.76904 2.83129 5.76904C1.2819 5.71575 0 4.43353 0 2.88452Z" fill="#C8175D"/>
</svg>
