<svg width="24" height="24" viewBox="0 0 24 24" fill="none" xmlns="http://www.w3.org/2000/svg">
<path d="M11.6438 0.304688C5.21545 0.304688 0 5.51988 0 11.9484C0 18.377 5.21519 23.5922 11.6438 23.5922C18.0723 23.5922 23.2875 18.377 23.2875 11.9484C23.2875 5.51988 18.0723 0.304688 11.6438 0.304688ZM17.7107 12.5609H11.6438C11.3066 12.5609 11.0309 12.2851 11.0309 11.948V5.82018C11.0309 5.48305 11.3066 5.20728 11.6438 5.20728C11.9809 5.20728 12.2567 5.48305 12.2567 5.82018V11.3356H17.7106C18.0477 11.3356 18.3235 11.6113 18.3235 11.9484C18.3235 12.2856 18.0477 12.5613 17.7106 12.5613L17.7107 12.5609Z" fill="white"/>
</svg>
