<svg width="27" height="24" viewBox="0 0 27 24" fill="none" xmlns="http://www.w3.org/2000/svg">
<path d="M21.6158 3.84273H20.1292L18.7802 1.14483C18.4774 0.511684 17.8166 0.0986328 17.1009 0.0986328H10.0807C9.36496 0.0986328 8.70418 0.511507 8.40135 1.14483L7.05232 3.84273H5.56579C2.75767 3.84273 0.500244 6.10031 0.500244 8.90828V18.2135C0.500244 21.0216 2.75782 23.279 5.56579 23.279H21.5883C24.3965 23.279 26.6539 21.0215 26.6539 18.2135V8.90828C26.6814 6.10016 24.4238 3.84273 21.6159 3.84273H21.6158ZM13.6045 19.7552C9.75038 19.7552 6.63937 16.6167 6.63937 12.79C6.63937 8.93591 9.75033 5.79738 13.6045 5.79738C17.4587 5.79738 20.5696 8.93581 20.5696 12.79C20.5696 16.6167 17.4587 19.7552 13.6045 19.7552Z" fill="white"/>
</svg>
