<svg width="40" height="40" viewBox="0 0 40 40" fill="none" xmlns="http://www.w3.org/2000/svg">
<path fill-rule="evenodd" clip-rule="evenodd" d="M20 0C31.0891 0 40 8.96035 40 20C40 31.0891 31.0891 40 20 40C8.96035 40 0 31.0891 0 20C0 8.96035 8.96035 0 20 0ZM28.3164 9.95021L20 18.2172L11.733 9.95021C10.5449 8.76216 8.76283 10.5442 9.95088 11.7323L18.2179 19.9993L9.95088 28.3158C8.76283 29.5038 10.5449 31.2365 11.733 30.0979L20 21.7814L28.3164 30.0979C29.5045 31.2365 31.2372 29.5038 30.0985 28.3158L21.7821 19.9993L30.0985 11.7323C31.2372 10.5443 29.4551 8.76216 28.3164 9.95021Z" fill="#C8175D"/>
</svg>
