<svg width="20" height="20" viewBox="0 0 20 20" fill="none" xmlns="http://www.w3.org/2000/svg">
<path d="M8.07241 1V3.57143L6.78669 4.21429L4.85812 2.28571L2.28669 4.85714L4.21526 6.78571L3.57241 8.07143H1.00098V11.9286H3.57241L4.21526 13.2143L2.28669 15.1429L4.85812 17.7143L6.78669 15.7857L8.07241 16.4286V19H11.9295V16.4286L13.2153 15.7857L15.1438 17.7143L17.7153 15.1429L15.7867 13.2143L16.4295 11.9286H19.001V8.07143H16.4295L15.7867 6.78571L17.7153 4.85714L15.1438 2.28571L13.2153 4.21429L11.9295 3.57143V1H8.07241Z" stroke="#C8175D" stroke-width="2" stroke-linecap="round" stroke-linejoin="round"/>
<path d="M10.0011 12.5716C11.4213 12.5716 12.5725 11.4203 12.5725 10.0001C12.5725 8.57998 11.4213 7.42871 10.0011 7.42871C8.58096 7.42871 7.42969 8.57998 7.42969 10.0001C7.42969 11.4203 8.58096 12.5716 10.0011 12.5716Z" stroke="#C8175D" stroke-width="2" stroke-linecap="round" stroke-linejoin="round"/>
</svg>
