<svg width="26" height="15" viewBox="0 0 26 15" fill="none" xmlns="http://www.w3.org/2000/svg">
<path fill-rule="evenodd" clip-rule="evenodd" d="M13 2.84668C15.4853 2.84668 17.5 4.8614 17.5 7.34668C17.5 9.83196 15.4853 11.8467 13 11.8467C10.5147 11.8467 8.5 9.83196 8.5 7.34668C8.5 4.8614 10.5147 2.84668 13 2.84668ZM13 3.84668C14.933 3.84668 16.5 5.41368 16.5 7.34668C16.5 9.27968 14.933 10.8467 13 10.8467C11.067 10.8467 9.5 9.27968 9.5 7.34668C9.5 5.41368 11.067 3.84668 13 3.84668Z" fill="black"/>
<path d="M1 7.84668C5 2.68001 15.4 -4.55332 25 7.84668C21.5 12.8467 11.8 19.8467 1 7.84668Z" stroke="black"/>
</svg>
