<svg width="26" height="20" viewBox="0 0 26 20" fill="none" xmlns="http://www.w3.org/2000/svg">
<path d="M10.6061 13.8634L10.9967 12.88C11.4272 13.0511 11.8884 13.1401 12.3627 13.1401C14.408 13.1401 16.0659 11.4821 16.0659 9.43698C16.0659 9.07225 16.0133 8.71517 15.911 8.37335L16.9246 8.07002C17.0563 8.51005 17.1239 8.96924 17.1239 9.43701C17.1239 12.0665 14.9922 14.1982 12.3627 14.1982C11.7542 14.1982 11.1605 14.0836 10.6061 13.8634L10.6061 13.8634ZM1.77448 9.3754C1.63337 9.52802 1.50126 9.6746 1.37874 9.81407C1.50125 9.95356 1.63336 10.1001 1.77448 10.2527C2.5444 11.0848 3.4203 11.9179 4.38266 12.6934C4.95937 13.1581 5.55051 13.5881 6.15348 13.9764L5.58078 14.8659C2.213 12.6974 0 9.81411 0 9.81411C0 9.81411 5.68432 2.40783 12.6965 2.40783C14.204 2.40783 15.6499 2.75013 16.9914 3.28755L16.1803 4.1106C15.0078 3.68757 13.8444 3.46587 12.6965 3.46587C9.91054 3.46587 7.08357 4.758 4.38255 6.93477C3.42015 7.71027 2.54428 8.54336 1.77437 9.37543L1.77448 9.3754ZM23.6188 10.2528C23.7599 10.1002 23.8921 9.95358 24.0146 9.81411C23.8921 9.67462 23.76 9.52805 23.6188 9.37543C22.8489 8.54336 21.973 7.71031 21.0107 6.93477C20.6074 6.60988 20.1966 6.30153 19.7789 6.01223L20.3814 5.14237C23.4272 7.25271 25.3931 9.81399 25.3931 9.81399C25.3931 9.81399 19.7088 17.2203 12.6966 17.2203C11.3335 17.2203 10.0204 16.9404 8.78981 16.4893L9.63575 15.6612C10.6656 15.9907 11.6873 16.1622 12.6968 16.1622C15.4827 16.1622 18.3097 14.8701 21.0107 12.6933C21.9731 11.9178 22.849 11.0847 23.6189 10.2527L23.6188 10.2528ZM14.7959 5.53959L14.3289 6.48899C13.8256 6.24146 13.271 6.11097 12.6967 6.11097C10.6515 6.11097 8.99356 7.76888 8.99356 9.81411C8.99356 10.3434 9.10441 10.856 9.31593 11.3278L8.35043 11.7607C8.0781 11.1537 7.93553 10.4934 7.93553 9.81411C7.93553 7.18465 10.0673 5.05293 12.6967 5.05293C13.4339 5.05293 14.1481 5.22091 14.796 5.53959H14.7959ZM21.9203 0L22.6685 0.748223L3.41675 20L2.66868 19.2519L21.9203 0Z" fill="black"/>
</svg>
