<svg width="14" height="20" viewBox="0 0 14 20" fill="none" xmlns="http://www.w3.org/2000/svg">
<path d="M6.99992 0C5.32725 0 3.7099 0.605401 2.44084 1.70662C1.1716 2.80779 0.334465 4.33178 0.080846 6.00299C-0.172575 7.67401 0.174238 9.38151 1.05863 10.8166L7.00001 19.6L12.9414 10.8166C13.8257 9.38161 14.1726 7.6741 13.9192 6.00299C13.6656 4.33178 12.8284 2.80779 11.5592 1.70662C10.2901 0.605448 8.67276 0 7.0001 0H6.99992ZM6.99992 9.67796C6.31704 9.67796 5.66203 9.40385 5.17925 8.91571C4.69629 8.42775 4.4251 7.7657 4.4251 7.07548C4.4251 6.38527 4.69631 5.72322 5.17925 5.23525C5.66203 4.7471 6.31704 4.47301 6.99992 4.47301C7.68279 4.47301 8.33781 4.74712 8.82058 5.23525C9.30354 5.72322 9.57473 6.38527 9.57473 7.07548C9.57473 7.7657 9.30353 8.42775 8.82058 8.91571C8.33781 9.40386 7.68279 9.67796 6.99992 9.67796Z" fill="black"/>
</svg>
