<svg width="13" height="19" viewBox="0 0 13 19" fill="none" xmlns="http://www.w3.org/2000/svg">
<path d="M6.39983 0.598633C4.89436 0.598633 3.43868 1.14352 2.29647 2.13466C1.1541 3.12577 0.400642 4.49742 0.172374 6.00157C-0.0557157 7.50557 0.256431 9.04239 1.05242 10.3341L6.39991 18.2395L11.7474 10.3341C12.5434 9.04248 12.8555 7.50565 12.6275 6.00157C12.3992 4.49742 11.6457 3.12577 10.5034 2.13466C9.3611 1.14356 7.90546 0.598633 6.4 0.598633H6.39983ZM6.39983 9.30921C5.78521 9.30921 5.19567 9.06249 4.76115 8.62315C4.32647 8.18397 4.08239 7.58809 4.08239 6.96687C4.08239 6.34565 4.32648 5.74977 4.76115 5.31058C5.19567 4.87123 5.78521 4.62453 6.39983 4.62453C7.01445 4.62453 7.60399 4.87124 8.03851 5.31058C8.47319 5.74977 8.71727 6.34565 8.71727 6.96687C8.71727 7.58809 8.47318 8.18397 8.03851 8.62315C7.60399 9.06251 7.01445 9.30921 6.39983 9.30921Z" fill="#C8175D"/>
</svg>
