<svg width="18" height="20" viewBox="0 0 18 20" fill="none" xmlns="http://www.w3.org/2000/svg">
<path d="M13.2979 4.94343L17.5688 9.21434C17.8672 9.51271 17.8672 10.0197 17.5688 10.3181L16.1179 11.769C15.3535 12.5296 14.589 13.294 13.8246 14.0584L13.2981 14.585C13.0094 14.8736 12.479 14.8951 12.1943 14.585C11.9076 14.273 11.8862 13.7894 12.1943 13.4812L16.4652 9.21032V10.3141L12.1943 6.04316C11.9057 5.75454 11.8842 5.2241 12.1943 4.9394C12.5063 4.65663 12.9899 4.63518 13.2981 4.9433L13.2979 4.94343Z" fill="#C8175D"/>
<path d="M17.0194 10.5453H15.8609H13.0777H9.71129H6.80326C6.3332 10.5453 5.86511 10.5511 5.39509 10.5453H5.37558C4.96794 10.5453 4.57592 10.1864 4.59543 9.76509C4.61493 9.34187 4.93869 8.98494 5.37558 8.98494H6.5341H9.31731H12.6837H15.5917C16.0618 8.98494 16.5299 8.97909 16.9999 8.98494H17.0194C17.4271 8.98494 17.8191 9.34379 17.7996 9.76509C17.782 10.1883 17.4582 10.5453 17.0194 10.5453Z" fill="#C8175D"/>
<path d="M14.7439 3.83612V2.31286C14.7439 2.21338 14.7478 2.11392 14.7341 2.01445C14.7439 2.08271 14.7536 2.15292 14.7614 2.22119C14.7497 2.14317 14.7283 2.06711 14.699 1.99299C14.7244 2.05541 14.7517 2.11782 14.777 2.18023C14.7439 2.10027 14.701 2.02615 14.6503 1.95789C14.6912 2.01055 14.7322 2.06321 14.7731 2.11587C14.7205 2.0476 14.66 1.98909 14.5937 1.93643C14.6464 1.97739 14.699 2.01835 14.7517 2.05931C14.6815 2.00665 14.6093 1.96569 14.5293 1.93253C14.5917 1.95789 14.6542 1.98519 14.7166 2.01055C14.6425 1.98129 14.5664 1.96179 14.4884 1.94814C14.5566 1.95789 14.6269 1.96764 14.6951 1.97544C14.5527 1.95789 14.4065 1.96569 14.2621 1.96569H13.3903H10.4784H6.94038H3.89386C3.41603 1.96569 2.93816 1.96374 2.46033 1.96569C2.40962 1.96569 2.36086 1.96959 2.3121 1.97544C2.38037 1.96569 2.45058 1.95594 2.51884 1.94814C2.44083 1.95984 2.36476 1.98129 2.29065 2.01055C2.35306 1.98519 2.41548 1.95789 2.47789 1.93253C2.39792 1.96569 2.32381 2.0086 2.25554 2.05931C2.3082 2.01835 2.36086 1.97739 2.41352 1.93643C2.34526 1.9891 2.28675 2.04956 2.23409 2.11587C2.27505 2.06321 2.31601 2.01055 2.35696 1.95789C2.3043 2.0281 2.26335 2.10027 2.23019 2.18023C2.25554 2.11782 2.28285 2.05541 2.3082 1.99299C2.27895 2.06711 2.25944 2.14317 2.24579 2.22119C2.25554 2.15292 2.2653 2.08271 2.2731 2.01445C2.25164 2.18413 2.26335 2.35966 2.26335 2.53129V3.63132V5.26967V7.28442V9.49422V11.7254V13.7948V15.5462V16.7945V17.3659C2.26335 17.4167 2.26725 17.4674 2.2731 17.5181C2.26334 17.4498 2.25359 17.3796 2.24579 17.3113C2.25749 17.3893 2.27895 17.4654 2.3082 17.5395C2.28285 17.4771 2.25554 17.4147 2.23019 17.3523C2.26335 17.4323 2.30625 17.5064 2.35696 17.5746C2.31601 17.522 2.27505 17.4693 2.23409 17.4166C2.28675 17.4849 2.34721 17.5434 2.41352 17.5961C2.36086 17.5551 2.3082 17.5142 2.25554 17.4732C2.32576 17.5259 2.39792 17.5668 2.47789 17.6C2.41548 17.5746 2.35306 17.5473 2.29065 17.522C2.36476 17.5512 2.44083 17.5707 2.51884 17.5844C2.45058 17.5746 2.38037 17.5649 2.3121 17.5571C2.45448 17.5746 2.60076 17.5668 2.7451 17.5668H3.61692H6.52884H10.0668H13.1134C13.5912 17.5668 14.0691 17.5688 14.5469 17.5668C14.5976 17.5668 14.6464 17.5629 14.6951 17.5571C14.6269 17.5668 14.5566 17.5766 14.4884 17.5844C14.5664 17.5727 14.6425 17.5512 14.7166 17.522C14.6542 17.5473 14.5917 17.5746 14.5293 17.6C14.6093 17.5668 14.6834 17.5239 14.7517 17.4732C14.699 17.5142 14.6464 17.5551 14.5937 17.5961C14.662 17.5434 14.7205 17.483 14.7731 17.4166C14.7322 17.4693 14.6912 17.522 14.6503 17.5746C14.7029 17.5044 14.7439 17.4323 14.777 17.3523C14.7517 17.4147 14.7244 17.4771 14.699 17.5395C14.7283 17.4654 14.7478 17.3893 14.7614 17.3113C14.7517 17.3796 14.7419 17.4498 14.7341 17.5181C14.7614 17.3055 14.7439 17.0851 14.7439 16.8705V15.9227V15.6945C14.7439 15.2868 15.1027 14.8948 15.524 14.9143C15.9473 14.9338 16.3042 15.2576 16.3042 15.6945V16.9505C16.3042 17.0949 16.3061 17.2392 16.3042 17.3816C16.2964 18.0018 15.9629 18.6083 15.4089 18.9048C15.0832 19.0804 14.74 19.1272 14.3811 19.1272H13.6848H11.1396H7.83951H4.73058H2.72753C2.62026 19.1272 2.51104 19.1311 2.40182 19.1272C1.79331 19.1018 1.18866 18.7664 0.907802 18.2105C0.773227 17.9413 0.699109 17.6644 0.699109 17.364C0.697159 16.9857 0.699109 16.6092 0.699109 16.2309V13.7695V10.5825V7.23565V4.35686V2.50985V2.16267C0.701059 1.84281 0.782977 1.51319 0.952661 1.24211C1.27643 0.725258 1.83425 0.411234 2.44471 0.403423C2.81723 0.399523 3.1917 0.403423 3.56618 0.403423H6.26943H9.58899H12.614H14.3986C14.7829 0.403423 15.171 0.454134 15.4967 0.678427C15.9921 1.01779 16.2964 1.54439 16.3042 2.15097C16.3061 2.31091 16.3042 2.47279 16.3042 2.63273V3.83611C16.3042 4.24376 15.9453 4.63578 15.524 4.61627C15.1008 4.59677 14.7439 4.273 14.7439 3.83611V3.83612Z" fill="#C8175D"/>
</svg>
