<svg width="14" height="14" viewBox="0 0 14 14" fill="none" xmlns="http://www.w3.org/2000/svg">
<path fill-rule="evenodd" clip-rule="evenodd" d="M7.08865 0.200195C7.41047 0.242354 7.72265 0.407037 8.02228 0.688564C8.37338 1.0184 8.69995 1.50793 8.97565 2.12043C9.09817 2.39277 9.21059 2.68928 9.3114 3.00645H7.08862L7.08865 0.200195Z" fill="#C8175D"/>
<path fill-rule="evenodd" clip-rule="evenodd" d="M6.75624 0.200195V3.00634H4.53394C4.63474 2.68916 4.74717 2.39265 4.86981 2.12031C5.14552 1.50778 5.47235 1.01829 5.8233 0.688445C6.12281 0.406924 6.43475 0.242473 6.75624 0.200195Z" fill="#C8175D"/>
<path fill-rule="evenodd" clip-rule="evenodd" d="M5.89286 0.203125C5.79047 0.274406 5.69097 0.355557 5.59498 0.44588C5.20002 0.817026 4.85488 1.342 4.56627 1.9831C4.42487 2.29712 4.29728 2.63938 4.1849 3.00533H1.35229C2.40005 1.52767 4.02132 0.485735 5.89295 0.203155L5.89286 0.203125Z" fill="#C8175D"/>
<path fill-rule="evenodd" clip-rule="evenodd" d="M7.95117 0.204137C9.82251 0.486943 11.4439 1.52877 12.4921 3.00619H9.65884C9.54657 2.64027 9.41899 2.2979 9.2777 1.98396C8.98921 1.3429 8.64407 0.817919 8.249 0.446625C8.15299 0.356418 8.05361 0.27527 7.9512 0.204102L7.95117 0.204137Z" fill="#C8175D"/>
<path fill-rule="evenodd" clip-rule="evenodd" d="M12.7081 3.32715C13.339 4.33274 13.7148 5.5147 13.7451 6.78304H10.2048C10.1917 5.52677 10.0304 4.35191 9.75562 3.33844H12.6464C12.6673 3.33856 12.6883 3.33496 12.7078 3.32753L12.7081 3.32715Z" fill="#C8175D"/>
<path fill-rule="evenodd" clip-rule="evenodd" d="M1.13019 3.33887H4.08867C3.81373 4.35257 3.65222 5.52734 3.63911 6.78347H0.100586C0.130773 5.52 0.503689 4.34187 1.13022 3.33887H1.13019Z" fill="#C8175D"/>
<path fill-rule="evenodd" clip-rule="evenodd" d="M4.43533 3.33887H6.75694V6.78444H3.97241C3.98612 5.5191 4.15498 4.33951 4.43533 3.33887Z" fill="#C8175D"/>
<path fill-rule="evenodd" clip-rule="evenodd" d="M7.08871 3.33887H9.41068C9.6908 4.33963 9.85956 5.51925 9.87315 6.78444H7.08862L7.08871 3.33887Z" fill="#C8175D"/>
<path fill-rule="evenodd" clip-rule="evenodd" d="M0.100157 7.11621H3.63868C3.65157 8.35539 3.8089 9.51519 4.07686 10.5195H1.10337C0.492888 9.52541 0.129821 8.3625 0.100098 7.11621H0.100157Z" fill="#C8175D"/>
<path fill-rule="evenodd" clip-rule="evenodd" d="M3.97192 7.11621H6.75645V10.5205H4.42277C4.14961 9.52865 3.98539 8.36425 3.97192 7.11621Z" fill="#C8175D"/>
<path fill-rule="evenodd" clip-rule="evenodd" d="M7.08862 7.11621H9.87315C9.85968 8.36413 9.69569 9.52853 9.42266 10.5205H7.08862V7.11621Z" fill="#C8175D"/>
<path fill-rule="evenodd" clip-rule="evenodd" d="M10.2049 7.11625H13.7452C13.7153 8.37101 13.3472 9.54135 12.7288 10.54C12.7039 10.5262 12.6753 10.5191 12.6468 10.5195H9.76733C10.0352 9.51531 10.1923 8.35551 10.2052 7.11621L10.2049 7.11625Z" fill="#C8175D"/>
<path fill-rule="evenodd" clip-rule="evenodd" d="M1.32202 10.8525H4.17169C4.2872 11.2348 4.41932 11.5915 4.56616 11.9178C4.85477 12.559 5.19992 13.084 5.59487 13.4553C5.691 13.5456 5.79037 13.6267 5.89276 13.698C4.0032 13.4127 2.36883 12.3533 1.32208 10.8525H1.32202Z" fill="#C8175D"/>
<path fill-rule="evenodd" clip-rule="evenodd" d="M4.52075 10.8525H6.75641V13.7019C6.43495 13.6596 6.12298 13.495 5.82346 13.2136C5.47248 12.8837 5.14568 12.3942 4.86998 11.7816C4.74188 11.4971 4.62504 11.186 4.52075 10.8527V10.8525Z" fill="#C8175D"/>
<path fill-rule="evenodd" clip-rule="evenodd" d="M7.08862 10.8525H9.32475C9.22058 11.1859 9.10374 11.4971 8.97565 11.7815C8.70005 12.3941 8.37335 12.8836 8.02228 13.2135C7.72265 13.495 7.41047 13.6596 7.08865 13.7019L7.08862 10.8525Z" fill="#C8175D"/>
<path fill-rule="evenodd" clip-rule="evenodd" d="M9.67179 10.8525H12.5221C11.4752 12.3531 9.84049 13.4123 7.95117 13.6979C8.05357 13.6266 8.15295 13.5455 8.24897 13.4553C8.64404 13.084 8.98918 12.559 9.27767 11.9178C9.42442 11.5916 9.55653 11.2347 9.67194 10.8525L9.67179 10.8525Z" fill="#C8175D"/>
</svg>
