<svg width="16" height="17" viewBox="0 0 16 17" fill="none" xmlns="http://www.w3.org/2000/svg">
<path d="M14.7374 13.0176L14.6473 12.8374C14.3951 12.2429 11.2964 11.3421 11.0442 11.3241L10.846 11.3421C10.4676 11.4141 10.0533 11.7564 9.24263 12.459C9.08051 12.6031 8.86423 12.6392 8.66606 12.531C7.60318 11.9365 6.30606 10.7474 5.65747 10.0269C4.95487 9.25225 4.10814 7.97308 3.7118 6.94613C3.63979 6.74796 3.7118 6.53181 3.85594 6.38769C4.7747 5.55891 5.17104 5.16269 5.2071 4.73026C5.22507 4.47805 4.68471 1.28929 4.1261 0.983027L3.96399 0.874953C3.60372 0.640713 3.06322 0.298392 2.4687 0.424565C2.32456 0.460632 2.18043 0.514669 2.05438 0.586676C1.65817 0.839141 0.667281 1.52377 0.216893 2.40644C-0.0532882 2.96489 -0.179449 8.02728 3.60381 12.297C7.35104 16.5306 11.981 16.7108 12.6656 16.5666H12.6836L12.7376 16.5487C13.6745 16.2063 14.4672 15.3237 14.7734 14.9453C15.3319 14.2787 14.9536 13.468 14.7373 13.0176L14.7374 13.0176Z" fill="#C8175D"/>
</svg>
