<svg width="78" height="100" viewBox="0 0 78 100" fill="none" xmlns="http://www.w3.org/2000/svg">
<path d="M71.2335 1.8143L23.1352 44.8062L0 40.8071L71.2335 1.8143ZM52.3367 49.8677L70.6168 53.0212L77.723 0L39.8947 47.7107L41.4025 47.9737L52.3244 49.8584L52.3367 49.8677ZM64.0124 63.7031C70.7992 69.6897 73.484 79.9837 70.3758 88.1869C69.0394 91.7404 65.4063 97.7149 56.267 97.7149C50.1889 97.7149 45.8703 95.9441 43.4484 92.4481C38.4213 85.1483 42.7854 72.5806 43.1058 71.7244V71.7929L43.0484 71.8614C43.0085 71.9363 42.9583 72.0057 42.8994 72.067L42.7965 72.1467C42.7368 72.1993 42.6722 72.2456 42.6029 72.2838C42.4714 72.334 42.3319 72.3603 42.1917 72.3643H42.0315C41.9128 72.3484 41.7972 72.3133 41.6888 72.2615C41.5573 72.1842 41.441 72.0838 41.3461 71.9642L40.7747 71.4391C39.8375 74.2379 36.3078 86.1081 41.5749 93.7052C44.4423 97.8858 49.4119 100 56.2671 100C63.956 100 69.8859 95.9899 72.5246 88.9975C75.9522 79.9381 72.9932 68.5819 65.5212 62.0004C61.4258 58.4603 56.2594 56.4004 50.8514 56.1509L49.7086 58.4356H49.7094C54.9515 58.434 60.0233 60.3012 64.0126 63.7025L64.0124 63.7031ZM27.2593 62.3667C10.7964 71.1067 4.99324 87.285 4.7525 87.9704C4.62021 88.2621 4.61703 88.596 4.74294 88.8901C4.86886 89.185 5.11272 89.4129 5.41476 89.5189C5.7168 89.6249 6.04991 89.5993 6.33203 89.4479C6.61414 89.2973 6.82054 89.0343 6.90024 88.7243C6.95762 88.5641 12.6812 72.73 28.3319 64.3895C30.1983 63.4069 31.9803 62.5582 33.6785 61.8418L32.2735 60.0145C30.6741 60.6536 29.006 61.4426 27.2576 62.3678L27.2593 62.3667ZM36.6846 48.6572H36.6854C36.6623 48.5089 36.6623 48.3591 36.6854 48.2117C36.722 48.073 36.7882 47.9447 36.879 47.8339L70.2169 5.79073L24.9993 46.1896L40.0231 66.583L36.6846 48.6572ZM39.2323 49.8L42.5571 67.7134L50.4292 51.856L39.2323 49.8Z" fill="#C8175D"/>
</svg>
