<svg width="32" height="27" viewBox="0 0 32 27" fill="none" xmlns="http://www.w3.org/2000/svg">
<path d="M22.6368 0.198242V3.64306C17.5298 4.94055 10.2511 8.41351 7.88683 15.7244C13.7953 10.5394 22.1495 11.1043 22.6368 11.1273V14.5721L31.9526 7.3912L22.6368 0.198242ZM2.45263 2.52732C1.63979 2.52732 0.900146 3.26704 0.900146 4.07981V25.0403C0.900146 25.8533 1.63986 26.5928 2.45263 26.5928H23.4131C24.2259 26.5928 24.9656 25.8531 24.9656 25.0403V14.7299L23.5829 15.7972L21.8603 17.1314V23.4874H4.00505V5.63223H14.1332C16.4046 4.17824 18.8154 3.17866 20.9744 2.52691L2.45263 2.52732Z" fill="white"/>
</svg>
