<svg width="14" height="14" viewBox="0 0 14 14" fill="none" xmlns="http://www.w3.org/2000/svg">
<path d="M6.75081 0.0986328C4.96056 0.0986328 3.24344 0.809864 1.97762 2.07576C0.711719 3.34177 0.000488281 5.05871 0.000488281 6.84895C0.000488281 8.63919 0.711719 10.3563 1.97762 11.6221C3.24362 12.888 4.96056 13.5993 6.75081 13.5993C8.54105 13.5993 10.2582 12.888 11.524 11.6221C12.7899 10.3561 13.5011 8.63919 13.5011 6.84895C13.5011 5.05871 12.7899 3.34158 11.524 2.07576C10.258 0.809864 8.54105 0.0986328 6.75081 0.0986328ZM8.92324 9.02143V9.02154C8.80735 9.13639 8.65059 9.2004 8.48755 9.19947C8.32441 9.2004 8.16764 9.13639 8.05176 9.02154L6.31504 7.28482H6.31514C6.20029 7.16904 6.13618 7.01227 6.13721 6.84913V3.16713C6.13721 2.9479 6.25412 2.7453 6.44397 2.63569C6.63382 2.52607 6.86785 2.52607 7.05771 2.63569C7.24757 2.7453 7.36447 2.94789 7.36447 3.16713V6.59744L8.92317 8.15006L8.92327 8.14996C9.03936 8.26523 9.1048 8.42211 9.1048 8.58575C9.1048 8.7493 9.03936 8.90619 8.92327 9.02143H8.92324Z" fill="#C8175D"/>
</svg>
