<svg width="21" height="17" viewBox="0 0 21 17" fill="none" xmlns="http://www.w3.org/2000/svg">
<path d="M20.6635 7.46029C18.4128 2.49818 15.0107 0.000976562 10.4501 0.000976562C5.88707 0.000976562 2.48735 2.49818 0.236703 7.46277C0.146428 7.66284 0.0996094 7.88135 0.0996094 8.1026C0.0996094 8.32386 0.146428 8.54236 0.236703 8.74243C2.48735 13.7045 5.88944 16.2017 10.4501 16.2017C15.0131 16.2017 18.4128 13.7045 20.6635 8.73995C20.8463 8.33741 20.8463 7.87027 20.6635 7.46029V7.46029ZM10.4501 14.4127C6.62066 14.4127 3.81685 12.3801 1.83922 8.10136C3.81685 3.82257 6.62066 1.79002 10.4501 1.79002C14.2795 1.79002 17.0833 3.82257 19.061 8.10136C17.0857 12.3801 14.2819 14.4127 10.4501 14.4127ZM10.3551 3.72815C8.0475 3.72815 6.17671 5.68615 6.17671 8.10136C6.17671 10.5166 8.0475 12.4746 10.3551 12.4746C12.6628 12.4746 14.5335 10.5166 14.5335 8.10136C14.5335 5.68615 12.6628 3.72815 10.3551 3.72815ZM10.3551 10.8843C8.88556 10.8843 7.69613 9.63944 7.69613 8.10136C7.69613 6.56328 8.88556 5.3184 10.3551 5.3184C11.8247 5.3184 13.0141 6.56328 13.0141 8.10136C13.0141 9.63944 11.8247 10.8843 10.3551 10.8843Z" fill="#989696"/>
</svg>
